<mxfile host="app.diagrams.net" modified="2023-08-24T15:01:58.433Z" agent="Mozilla/5.0 (Windows NT 10.0; Win64; x64; rv:109.0) Gecko/20100101 Firefox/116.0" etag="d5T5AW9PgJt1jMH5HCdT" version="21.6.9" type="device">
  <diagram name="Página-1" id="OX3jYCKN3TqLSyHqY1oA">
    <mxGraphModel dx="1680" dy="1467" grid="1" gridSize="10" guides="1" tooltips="1" connect="1" arrows="1" fold="1" page="1" pageScale="1" pageWidth="827" pageHeight="1169" math="0" shadow="0">
      <root>
        <mxCell id="0" />
        <mxCell id="1" parent="0" />
        <mxCell id="Chhro7uyPCiOTzPTrU4y-1" value="" style="endArrow=none;html=1;rounded=0;" parent="1" edge="1">
          <mxGeometry width="50" height="50" relative="1" as="geometry">
            <mxPoint x="120" y="680" as="sourcePoint" />
            <mxPoint x="120" y="40" as="targetPoint" />
          </mxGeometry>
        </mxCell>
        <mxCell id="Chhro7uyPCiOTzPTrU4y-2" value="" style="endArrow=none;html=1;rounded=0;" parent="1" edge="1">
          <mxGeometry width="50" height="50" relative="1" as="geometry">
            <mxPoint x="680" y="680" as="sourcePoint" />
            <mxPoint x="680" y="40" as="targetPoint" />
          </mxGeometry>
        </mxCell>
        <mxCell id="Chhro7uyPCiOTzPTrU4y-3" value="" style="endArrow=none;html=1;rounded=0;" parent="1" edge="1">
          <mxGeometry width="50" height="50" relative="1" as="geometry">
            <mxPoint x="680" y="80" as="sourcePoint" />
            <mxPoint x="120" y="80" as="targetPoint" />
          </mxGeometry>
        </mxCell>
        <mxCell id="Chhro7uyPCiOTzPTrU4y-4" value="" style="endArrow=none;html=1;rounded=0;" parent="1" edge="1">
          <mxGeometry width="50" height="50" relative="1" as="geometry">
            <mxPoint x="400" y="680" as="sourcePoint" />
            <mxPoint x="400" y="40" as="targetPoint" />
          </mxGeometry>
        </mxCell>
        <mxCell id="Chhro7uyPCiOTzPTrU4y-5" value="Utilizador" style="text;html=1;align=center;verticalAlign=middle;resizable=0;points=[];autosize=1;strokeColor=none;fillColor=none;" parent="1" vertex="1">
          <mxGeometry x="230" y="40" width="70" height="30" as="geometry" />
        </mxCell>
        <mxCell id="Chhro7uyPCiOTzPTrU4y-6" value="Sistema" style="text;html=1;align=center;verticalAlign=middle;resizable=0;points=[];autosize=1;strokeColor=none;fillColor=none;" parent="1" vertex="1">
          <mxGeometry x="510" y="40" width="70" height="30" as="geometry" />
        </mxCell>
        <mxCell id="Chhro7uyPCiOTzPTrU4y-7" value="Autenticação" style="text;html=1;align=center;verticalAlign=middle;resizable=0;points=[];autosize=1;strokeColor=none;fillColor=none;" parent="1" vertex="1">
          <mxGeometry x="20" y="50" width="90" height="30" as="geometry" />
        </mxCell>
        <mxCell id="Chhro7uyPCiOTzPTrU4y-8" value="" style="ellipse;html=1;shape=startState;fillColor=#000000;strokeColor=#ff0000;" parent="1" vertex="1">
          <mxGeometry x="250" y="100" width="30" height="30" as="geometry" />
        </mxCell>
        <mxCell id="Chhro7uyPCiOTzPTrU4y-9" value="" style="edgeStyle=orthogonalEdgeStyle;html=1;verticalAlign=bottom;endArrow=open;endSize=8;strokeColor=#ff0000;rounded=0;entryX=0.5;entryY=0;entryDx=0;entryDy=0;" parent="1" source="Chhro7uyPCiOTzPTrU4y-8" target="Chhro7uyPCiOTzPTrU4y-10" edge="1">
          <mxGeometry relative="1" as="geometry">
            <mxPoint x="265" y="150" as="targetPoint" />
          </mxGeometry>
        </mxCell>
        <mxCell id="Chhro7uyPCiOTzPTrU4y-34" style="edgeStyle=orthogonalEdgeStyle;rounded=0;orthogonalLoop=1;jettySize=auto;html=1;exitX=0.5;exitY=1;exitDx=0;exitDy=0;entryX=0.5;entryY=0;entryDx=0;entryDy=0;" parent="1" source="Chhro7uyPCiOTzPTrU4y-10" target="Chhro7uyPCiOTzPTrU4y-11" edge="1">
          <mxGeometry relative="1" as="geometry" />
        </mxCell>
        <mxCell id="Chhro7uyPCiOTzPTrU4y-10" value="Realizar&lt;br&gt;Autenticação" style="rounded=1;whiteSpace=wrap;html=1;" parent="1" vertex="1">
          <mxGeometry x="205" y="160" width="120" height="30" as="geometry" />
        </mxCell>
        <mxCell id="Chhro7uyPCiOTzPTrU4y-25" style="edgeStyle=orthogonalEdgeStyle;rounded=0;orthogonalLoop=1;jettySize=auto;html=1;exitX=0;exitY=0.5;exitDx=0;exitDy=0;" parent="1" source="Chhro7uyPCiOTzPTrU4y-11" target="Chhro7uyPCiOTzPTrU4y-14" edge="1">
          <mxGeometry relative="1" as="geometry" />
        </mxCell>
        <mxCell id="Chhro7uyPCiOTzPTrU4y-33" style="edgeStyle=orthogonalEdgeStyle;rounded=0;orthogonalLoop=1;jettySize=auto;html=1;exitX=1;exitY=0.5;exitDx=0;exitDy=0;entryX=0.5;entryY=0;entryDx=0;entryDy=0;" parent="1" source="Chhro7uyPCiOTzPTrU4y-11" target="Chhro7uyPCiOTzPTrU4y-44" edge="1">
          <mxGeometry relative="1" as="geometry">
            <mxPoint x="334.9999999999998" y="280" as="targetPoint" />
          </mxGeometry>
        </mxCell>
        <mxCell id="Chhro7uyPCiOTzPTrU4y-11" value="" style="rhombus;whiteSpace=wrap;html=1;" parent="1" vertex="1">
          <mxGeometry x="237.5" y="220" width="55" height="50" as="geometry" />
        </mxCell>
        <mxCell id="Chhro7uyPCiOTzPTrU4y-12" value="[Registar]" style="text;html=1;align=center;verticalAlign=middle;resizable=0;points=[];autosize=1;strokeColor=none;fillColor=none;" parent="1" vertex="1">
          <mxGeometry x="150" y="218" width="80" height="30" as="geometry" />
        </mxCell>
        <mxCell id="Chhro7uyPCiOTzPTrU4y-13" value="[Aceder]" style="text;html=1;align=center;verticalAlign=middle;resizable=0;points=[];autosize=1;strokeColor=none;fillColor=none;" parent="1" vertex="1">
          <mxGeometry x="300" y="218" width="70" height="30" as="geometry" />
        </mxCell>
        <mxCell id="Chhro7uyPCiOTzPTrU4y-14" value="Prencher&lt;br&gt;Formulario&lt;br&gt;Registo" style="rounded=1;whiteSpace=wrap;html=1;" parent="1" vertex="1">
          <mxGeometry x="157.5" y="290" width="80" height="50" as="geometry" />
        </mxCell>
        <mxCell id="Chhro7uyPCiOTzPTrU4y-42" style="edgeStyle=orthogonalEdgeStyle;rounded=0;orthogonalLoop=1;jettySize=auto;html=1;exitX=0.5;exitY=1;exitDx=0;exitDy=0;entryX=0.083;entryY=0.499;entryDx=0;entryDy=0;entryPerimeter=0;" parent="1" source="Chhro7uyPCiOTzPTrU4y-14" target="Chhro7uyPCiOTzPTrU4y-41" edge="1">
          <mxGeometry relative="1" as="geometry">
            <mxPoint x="237.5" y="585" as="sourcePoint" />
            <Array as="points">
              <mxPoint x="198" y="585" />
            </Array>
          </mxGeometry>
        </mxCell>
        <mxCell id="Chhro7uyPCiOTzPTrU4y-40" style="edgeStyle=orthogonalEdgeStyle;rounded=0;orthogonalLoop=1;jettySize=auto;html=1;exitX=0.5;exitY=0;exitDx=0;exitDy=0;entryX=1;entryY=0.5;entryDx=0;entryDy=0;" parent="1" source="Chhro7uyPCiOTzPTrU4y-35" target="Chhro7uyPCiOTzPTrU4y-44" edge="1">
          <mxGeometry relative="1" as="geometry">
            <mxPoint x="381.2499999999998" y="295" as="targetPoint" />
          </mxGeometry>
        </mxCell>
        <mxCell id="Chhro7uyPCiOTzPTrU4y-59" style="edgeStyle=orthogonalEdgeStyle;rounded=0;orthogonalLoop=1;jettySize=auto;html=1;exitX=0.5;exitY=1;exitDx=0;exitDy=0;entryX=0.5;entryY=0;entryDx=0;entryDy=0;" parent="1" source="Chhro7uyPCiOTzPTrU4y-35" target="Chhro7uyPCiOTzPTrU4y-58" edge="1">
          <mxGeometry relative="1" as="geometry" />
        </mxCell>
        <mxCell id="Chhro7uyPCiOTzPTrU4y-35" value="" style="rhombus;whiteSpace=wrap;html=1;" parent="1" vertex="1">
          <mxGeometry x="500" y="350" width="55" height="50" as="geometry" />
        </mxCell>
        <mxCell id="Chhro7uyPCiOTzPTrU4y-38" value="[Dados Validos]" style="text;html=1;align=center;verticalAlign=middle;resizable=0;points=[];autosize=1;strokeColor=none;fillColor=none;" parent="1" vertex="1">
          <mxGeometry x="530" y="410" width="110" height="30" as="geometry" />
        </mxCell>
        <mxCell id="Chhro7uyPCiOTzPTrU4y-39" value="[Dados Invalidos]" style="text;html=1;align=center;verticalAlign=middle;resizable=0;points=[];autosize=1;strokeColor=none;fillColor=none;" parent="1" vertex="1">
          <mxGeometry x="525" y="320" width="120" height="30" as="geometry" />
        </mxCell>
        <mxCell id="Chhro7uyPCiOTzPTrU4y-52" style="edgeStyle=orthogonalEdgeStyle;rounded=0;orthogonalLoop=1;jettySize=auto;html=1;exitX=0.5;exitY=0;exitDx=0;exitDy=0;entryX=1;entryY=0.5;entryDx=0;entryDy=0;" parent="1" source="Chhro7uyPCiOTzPTrU4y-41" target="Chhro7uyPCiOTzPTrU4y-14" edge="1">
          <mxGeometry relative="1" as="geometry">
            <Array as="points">
              <mxPoint x="498" y="550" />
              <mxPoint x="220" y="550" />
              <mxPoint x="220" y="390" />
              <mxPoint x="260" y="390" />
              <mxPoint x="260" y="315" />
            </Array>
          </mxGeometry>
        </mxCell>
        <mxCell id="Chhro7uyPCiOTzPTrU4y-56" style="edgeStyle=orthogonalEdgeStyle;rounded=0;orthogonalLoop=1;jettySize=auto;html=1;exitX=1;exitY=0.5;exitDx=0;exitDy=0;entryX=1;entryY=0.25;entryDx=0;entryDy=0;" parent="1" source="Chhro7uyPCiOTzPTrU4y-41" target="Chhro7uyPCiOTzPTrU4y-44" edge="1">
          <mxGeometry relative="1" as="geometry">
            <Array as="points">
              <mxPoint x="660" y="585" />
              <mxPoint x="660" y="302" />
            </Array>
          </mxGeometry>
        </mxCell>
        <mxCell id="Chhro7uyPCiOTzPTrU4y-41" value="" style="rhombus;whiteSpace=wrap;html=1;" parent="1" vertex="1">
          <mxGeometry x="470" y="560" width="55" height="50" as="geometry" />
        </mxCell>
        <mxCell id="Chhro7uyPCiOTzPTrU4y-95" style="edgeStyle=orthogonalEdgeStyle;rounded=0;orthogonalLoop=1;jettySize=auto;html=1;exitX=0.5;exitY=1;exitDx=0;exitDy=0;entryX=0.5;entryY=0;entryDx=0;entryDy=0;" parent="1" source="Chhro7uyPCiOTzPTrU4y-43" target="Chhro7uyPCiOTzPTrU4y-94" edge="1">
          <mxGeometry relative="1" as="geometry" />
        </mxCell>
        <mxCell id="Chhro7uyPCiOTzPTrU4y-43" value="Aceder&lt;br&gt;Sistema" style="rounded=1;whiteSpace=wrap;html=1;" parent="1" vertex="1">
          <mxGeometry x="230" y="630" width="80" height="30" as="geometry" />
        </mxCell>
        <mxCell id="Chhro7uyPCiOTzPTrU4y-47" style="edgeStyle=orthogonalEdgeStyle;rounded=0;orthogonalLoop=1;jettySize=auto;html=1;exitX=0.5;exitY=1;exitDx=0;exitDy=0;entryX=0;entryY=0.5;entryDx=0;entryDy=0;" parent="1" source="Chhro7uyPCiOTzPTrU4y-44" target="Chhro7uyPCiOTzPTrU4y-35" edge="1">
          <mxGeometry relative="1" as="geometry" />
        </mxCell>
        <mxCell id="Chhro7uyPCiOTzPTrU4y-44" value="Prencher&lt;br&gt;&lt;div&gt;Formulario&lt;/div&gt;&lt;div&gt;Login&lt;/div&gt;" style="rounded=1;whiteSpace=wrap;html=1;" parent="1" vertex="1">
          <mxGeometry x="290" y="290" width="80" height="50" as="geometry" />
        </mxCell>
        <mxCell id="Chhro7uyPCiOTzPTrU4y-50" value="[Dados Invalidos]" style="text;html=1;align=center;verticalAlign=middle;resizable=0;points=[];autosize=1;strokeColor=none;fillColor=none;" parent="1" vertex="1">
          <mxGeometry x="435" y="520" width="120" height="30" as="geometry" />
        </mxCell>
        <mxCell id="Chhro7uyPCiOTzPTrU4y-53" value="[Dados Validos]" style="text;html=1;align=center;verticalAlign=middle;resizable=0;points=[];autosize=1;strokeColor=none;fillColor=none;" parent="1" vertex="1">
          <mxGeometry x="525" y="600" width="110" height="30" as="geometry" />
        </mxCell>
        <mxCell id="Chhro7uyPCiOTzPTrU4y-60" style="edgeStyle=orthogonalEdgeStyle;rounded=0;orthogonalLoop=1;jettySize=auto;html=1;exitX=0.5;exitY=1;exitDx=0;exitDy=0;curved=1;entryX=0.5;entryY=0;entryDx=0;entryDy=0;" parent="1" source="Chhro7uyPCiOTzPTrU4y-58" target="Chhro7uyPCiOTzPTrU4y-43" edge="1">
          <mxGeometry relative="1" as="geometry">
            <Array as="points">
              <mxPoint x="307" y="560" />
              <mxPoint x="270" y="560" />
            </Array>
          </mxGeometry>
        </mxCell>
        <mxCell id="Chhro7uyPCiOTzPTrU4y-58" value="" style="rhombus;whiteSpace=wrap;html=1;" parent="1" vertex="1">
          <mxGeometry x="280" y="450" width="55" height="50" as="geometry" />
        </mxCell>
        <mxCell id="Chhro7uyPCiOTzPTrU4y-61" value="Orçamentos" style="text;html=1;align=center;verticalAlign=middle;resizable=0;points=[];autosize=1;strokeColor=none;fillColor=none;" parent="1" vertex="1">
          <mxGeometry x="850" y="50" width="90" height="30" as="geometry" />
        </mxCell>
        <mxCell id="Chhro7uyPCiOTzPTrU4y-62" value="" style="endArrow=none;html=1;rounded=0;" parent="1" edge="1">
          <mxGeometry width="50" height="50" relative="1" as="geometry">
            <mxPoint x="950" y="680" as="sourcePoint" />
            <mxPoint x="950" y="40" as="targetPoint" />
          </mxGeometry>
        </mxCell>
        <mxCell id="Chhro7uyPCiOTzPTrU4y-63" value="" style="endArrow=none;html=1;rounded=0;" parent="1" edge="1">
          <mxGeometry width="50" height="50" relative="1" as="geometry">
            <mxPoint x="1510" y="680" as="sourcePoint" />
            <mxPoint x="1510" y="40" as="targetPoint" />
          </mxGeometry>
        </mxCell>
        <mxCell id="Chhro7uyPCiOTzPTrU4y-64" value="" style="endArrow=none;html=1;rounded=0;" parent="1" edge="1">
          <mxGeometry width="50" height="50" relative="1" as="geometry">
            <mxPoint x="1510" y="80" as="sourcePoint" />
            <mxPoint x="950" y="80" as="targetPoint" />
          </mxGeometry>
        </mxCell>
        <mxCell id="Chhro7uyPCiOTzPTrU4y-65" value="" style="endArrow=none;html=1;rounded=0;" parent="1" edge="1">
          <mxGeometry width="50" height="50" relative="1" as="geometry">
            <mxPoint x="1230" y="680" as="sourcePoint" />
            <mxPoint x="1230" y="40" as="targetPoint" />
          </mxGeometry>
        </mxCell>
        <mxCell id="Chhro7uyPCiOTzPTrU4y-66" value="Utilizador" style="text;html=1;align=center;verticalAlign=middle;resizable=0;points=[];autosize=1;strokeColor=none;fillColor=none;" parent="1" vertex="1">
          <mxGeometry x="1060" y="40" width="70" height="30" as="geometry" />
        </mxCell>
        <mxCell id="Chhro7uyPCiOTzPTrU4y-67" value="Sistema" style="text;html=1;align=center;verticalAlign=middle;resizable=0;points=[];autosize=1;strokeColor=none;fillColor=none;" parent="1" vertex="1">
          <mxGeometry x="1340" y="40" width="70" height="30" as="geometry" />
        </mxCell>
        <mxCell id="Chhro7uyPCiOTzPTrU4y-68" value="" style="ellipse;html=1;shape=startState;fillColor=#000000;strokeColor=#ff0000;" parent="1" vertex="1">
          <mxGeometry x="1080" y="100" width="30" height="30" as="geometry" />
        </mxCell>
        <mxCell id="Chhro7uyPCiOTzPTrU4y-69" value="" style="edgeStyle=orthogonalEdgeStyle;html=1;verticalAlign=bottom;endArrow=open;endSize=8;strokeColor=#ff0000;rounded=0;entryX=0.5;entryY=0;entryDx=0;entryDy=0;" parent="1" source="Chhro7uyPCiOTzPTrU4y-68" target="Chhro7uyPCiOTzPTrU4y-96" edge="1">
          <mxGeometry relative="1" as="geometry">
            <mxPoint x="1095" y="160" as="targetPoint" />
          </mxGeometry>
        </mxCell>
        <mxCell id="Chhro7uyPCiOTzPTrU4y-94" value="" style="ellipse;html=1;shape=endState;fillColor=#000000;strokeColor=#ff0000;" parent="1" vertex="1">
          <mxGeometry x="255" y="690" width="30" height="30" as="geometry" />
        </mxCell>
        <mxCell id="Chhro7uyPCiOTzPTrU4y-108" style="edgeStyle=orthogonalEdgeStyle;rounded=0;orthogonalLoop=1;jettySize=auto;html=1;exitX=0.5;exitY=1;exitDx=0;exitDy=0;entryX=0.5;entryY=0;entryDx=0;entryDy=0;" parent="1" source="Chhro7uyPCiOTzPTrU4y-96" target="Chhro7uyPCiOTzPTrU4y-97" edge="1">
          <mxGeometry relative="1" as="geometry" />
        </mxCell>
        <mxCell id="Chhro7uyPCiOTzPTrU4y-96" value="Selecionar&lt;br&gt;Orçamentos" style="rounded=1;whiteSpace=wrap;html=1;" parent="1" vertex="1">
          <mxGeometry x="1045" y="190" width="100" height="50" as="geometry" />
        </mxCell>
        <mxCell id="Chhro7uyPCiOTzPTrU4y-109" style="edgeStyle=orthogonalEdgeStyle;rounded=0;orthogonalLoop=1;jettySize=auto;html=1;exitX=0.5;exitY=1;exitDx=0;exitDy=0;" parent="1" source="Chhro7uyPCiOTzPTrU4y-97" edge="1">
          <mxGeometry relative="1" as="geometry">
            <mxPoint x="1095.057471264368" y="360" as="targetPoint" />
          </mxGeometry>
        </mxCell>
        <mxCell id="Chhro7uyPCiOTzPTrU4y-97" value="&lt;div&gt;Visualizar&lt;/div&gt;&lt;div&gt;Listagem&lt;br&gt;&lt;/div&gt;" style="rounded=1;whiteSpace=wrap;html=1;" parent="1" vertex="1">
          <mxGeometry x="1045" y="280" width="100" height="50" as="geometry" />
        </mxCell>
        <mxCell id="Chhro7uyPCiOTzPTrU4y-98" value="Criar&lt;br&gt;Orçamento" style="rounded=1;whiteSpace=wrap;html=1;" parent="1" vertex="1">
          <mxGeometry x="980" y="390" width="70" height="50" as="geometry" />
        </mxCell>
        <mxCell id="Chhro7uyPCiOTzPTrU4y-100" value="Editar&lt;br&gt;Orçamento" style="rounded=1;whiteSpace=wrap;html=1;" parent="1" vertex="1">
          <mxGeometry x="1060" y="390" width="70" height="50" as="geometry" />
        </mxCell>
        <mxCell id="Chhro7uyPCiOTzPTrU4y-101" value="&lt;div&gt;Eliminar&lt;/div&gt;&lt;div&gt;Orçamento&lt;br&gt;&lt;/div&gt;" style="rounded=1;whiteSpace=wrap;html=1;" parent="1" vertex="1">
          <mxGeometry x="1145" y="390" width="70" height="50" as="geometry" />
        </mxCell>
        <mxCell id="Chhro7uyPCiOTzPTrU4y-119" style="edgeStyle=orthogonalEdgeStyle;rounded=0;orthogonalLoop=1;jettySize=auto;html=1;exitX=0.5;exitY=1;exitDx=0;exitDy=0;entryX=0.5;entryY=0;entryDx=0;entryDy=0;" parent="1" source="Chhro7uyPCiOTzPTrU4y-103" target="Chhro7uyPCiOTzPTrU4y-118" edge="1">
          <mxGeometry relative="1" as="geometry" />
        </mxCell>
        <mxCell id="Chhro7uyPCiOTzPTrU4y-103" value="Atualizar&lt;br&gt;DataBase" style="rounded=1;whiteSpace=wrap;html=1;" parent="1" vertex="1">
          <mxGeometry x="1325" y="535" width="100" height="50" as="geometry" />
        </mxCell>
        <mxCell id="Chhro7uyPCiOTzPTrU4y-105" value="" style="endArrow=none;html=1;rounded=0;" parent="1" edge="1">
          <mxGeometry width="50" height="50" relative="1" as="geometry">
            <mxPoint x="1000" y="360" as="sourcePoint" />
            <mxPoint x="1190" y="360" as="targetPoint" />
          </mxGeometry>
        </mxCell>
        <mxCell id="Chhro7uyPCiOTzPTrU4y-106" value="" style="endArrow=none;html=1;rounded=0;" parent="1" edge="1">
          <mxGeometry width="50" height="50" relative="1" as="geometry">
            <mxPoint x="1000" y="470" as="sourcePoint" />
            <mxPoint x="1190" y="470" as="targetPoint" />
          </mxGeometry>
        </mxCell>
        <mxCell id="Chhro7uyPCiOTzPTrU4y-110" style="edgeStyle=orthogonalEdgeStyle;rounded=0;orthogonalLoop=1;jettySize=auto;html=1;exitX=0.5;exitY=1;exitDx=0;exitDy=0;" parent="1" edge="1">
          <mxGeometry relative="1" as="geometry">
            <mxPoint x="1014.9474712643679" y="390" as="targetPoint" />
            <mxPoint x="1014.89" y="360" as="sourcePoint" />
          </mxGeometry>
        </mxCell>
        <mxCell id="Chhro7uyPCiOTzPTrU4y-111" style="edgeStyle=orthogonalEdgeStyle;rounded=0;orthogonalLoop=1;jettySize=auto;html=1;exitX=0.5;exitY=1;exitDx=0;exitDy=0;" parent="1" edge="1">
          <mxGeometry relative="1" as="geometry">
            <mxPoint x="1094.9474712643678" y="390" as="targetPoint" />
            <mxPoint x="1094.8899999999999" y="360" as="sourcePoint" />
          </mxGeometry>
        </mxCell>
        <mxCell id="Chhro7uyPCiOTzPTrU4y-113" style="edgeStyle=orthogonalEdgeStyle;rounded=0;orthogonalLoop=1;jettySize=auto;html=1;exitX=0.5;exitY=1;exitDx=0;exitDy=0;" parent="1" edge="1">
          <mxGeometry relative="1" as="geometry">
            <mxPoint x="1179.9474712643678" y="390" as="targetPoint" />
            <mxPoint x="1179.8899999999999" y="360" as="sourcePoint" />
          </mxGeometry>
        </mxCell>
        <mxCell id="Chhro7uyPCiOTzPTrU4y-114" style="edgeStyle=orthogonalEdgeStyle;rounded=0;orthogonalLoop=1;jettySize=auto;html=1;exitX=0.5;exitY=1;exitDx=0;exitDy=0;" parent="1" edge="1">
          <mxGeometry relative="1" as="geometry">
            <mxPoint x="1014.9474712643678" y="470" as="targetPoint" />
            <mxPoint x="1014.8899999999999" y="440" as="sourcePoint" />
          </mxGeometry>
        </mxCell>
        <mxCell id="Chhro7uyPCiOTzPTrU4y-115" style="edgeStyle=orthogonalEdgeStyle;rounded=0;orthogonalLoop=1;jettySize=auto;html=1;exitX=0.5;exitY=1;exitDx=0;exitDy=0;" parent="1" edge="1">
          <mxGeometry relative="1" as="geometry">
            <mxPoint x="1094.9474712643678" y="470" as="targetPoint" />
            <mxPoint x="1094.8899999999999" y="440" as="sourcePoint" />
          </mxGeometry>
        </mxCell>
        <mxCell id="Chhro7uyPCiOTzPTrU4y-116" style="edgeStyle=orthogonalEdgeStyle;rounded=0;orthogonalLoop=1;jettySize=auto;html=1;exitX=0.5;exitY=1;exitDx=0;exitDy=0;" parent="1" edge="1">
          <mxGeometry relative="1" as="geometry">
            <mxPoint x="1179.9474712643678" y="470" as="targetPoint" />
            <mxPoint x="1179.8899999999999" y="440" as="sourcePoint" />
          </mxGeometry>
        </mxCell>
        <mxCell id="Chhro7uyPCiOTzPTrU4y-117" style="edgeStyle=orthogonalEdgeStyle;rounded=0;orthogonalLoop=1;jettySize=auto;html=1;exitX=0.5;exitY=1;exitDx=0;exitDy=0;" parent="1" target="Chhro7uyPCiOTzPTrU4y-103" edge="1">
          <mxGeometry relative="1" as="geometry">
            <mxPoint x="1094.7174712643678" y="500" as="targetPoint" />
            <mxPoint x="1094.6599999999999" y="470" as="sourcePoint" />
            <Array as="points">
              <mxPoint x="1095" y="500" />
              <mxPoint x="1375" y="500" />
            </Array>
          </mxGeometry>
        </mxCell>
        <mxCell id="Chhro7uyPCiOTzPTrU4y-118" value="" style="ellipse;html=1;shape=endState;fillColor=#000000;strokeColor=#ff0000;" parent="1" vertex="1">
          <mxGeometry x="1360" y="620" width="30" height="30" as="geometry" />
        </mxCell>
        <mxCell id="OfcOoXMwRskthWxn-bnW-1" value="&lt;div&gt;Criar&amp;nbsp;&lt;/div&gt;&lt;div&gt;Orçamentos&lt;/div&gt;" style="text;html=1;align=center;verticalAlign=middle;resizable=0;points=[];autosize=1;strokeColor=none;fillColor=none;" vertex="1" parent="1">
          <mxGeometry x="1760" y="45" width="90" height="40" as="geometry" />
        </mxCell>
        <mxCell id="OfcOoXMwRskthWxn-bnW-2" value="" style="endArrow=none;html=1;rounded=0;" edge="1" parent="1">
          <mxGeometry width="50" height="50" relative="1" as="geometry">
            <mxPoint x="1860" y="680" as="sourcePoint" />
            <mxPoint x="1860" y="40" as="targetPoint" />
          </mxGeometry>
        </mxCell>
        <mxCell id="OfcOoXMwRskthWxn-bnW-3" value="" style="endArrow=none;html=1;rounded=0;" edge="1" parent="1">
          <mxGeometry width="50" height="50" relative="1" as="geometry">
            <mxPoint x="2420" y="680" as="sourcePoint" />
            <mxPoint x="2420" y="40" as="targetPoint" />
          </mxGeometry>
        </mxCell>
        <mxCell id="OfcOoXMwRskthWxn-bnW-4" value="" style="endArrow=none;html=1;rounded=0;" edge="1" parent="1">
          <mxGeometry width="50" height="50" relative="1" as="geometry">
            <mxPoint x="2420" y="80" as="sourcePoint" />
            <mxPoint x="1860" y="80" as="targetPoint" />
          </mxGeometry>
        </mxCell>
        <mxCell id="OfcOoXMwRskthWxn-bnW-5" value="" style="endArrow=none;html=1;rounded=0;" edge="1" parent="1">
          <mxGeometry width="50" height="50" relative="1" as="geometry">
            <mxPoint x="2220" y="680" as="sourcePoint" />
            <mxPoint x="2220" y="40" as="targetPoint" />
          </mxGeometry>
        </mxCell>
        <mxCell id="OfcOoXMwRskthWxn-bnW-6" value="Utilizador" style="text;html=1;align=center;verticalAlign=middle;resizable=0;points=[];autosize=1;strokeColor=none;fillColor=none;" vertex="1" parent="1">
          <mxGeometry x="1970" y="40" width="70" height="30" as="geometry" />
        </mxCell>
        <mxCell id="OfcOoXMwRskthWxn-bnW-7" value="Sistema" style="text;html=1;align=center;verticalAlign=middle;resizable=0;points=[];autosize=1;strokeColor=none;fillColor=none;" vertex="1" parent="1">
          <mxGeometry x="2290" y="40" width="70" height="30" as="geometry" />
        </mxCell>
        <mxCell id="OfcOoXMwRskthWxn-bnW-8" value="" style="ellipse;html=1;shape=startState;fillColor=#000000;strokeColor=#ff0000;" vertex="1" parent="1">
          <mxGeometry x="2030" y="98" width="30" height="30" as="geometry" />
        </mxCell>
        <mxCell id="OfcOoXMwRskthWxn-bnW-9" value="" style="edgeStyle=orthogonalEdgeStyle;html=1;verticalAlign=bottom;endArrow=open;endSize=8;strokeColor=#ff0000;rounded=0;entryX=0.5;entryY=0;entryDx=0;entryDy=0;" edge="1" parent="1" source="OfcOoXMwRskthWxn-bnW-8" target="OfcOoXMwRskthWxn-bnW-11">
          <mxGeometry relative="1" as="geometry">
            <mxPoint x="2045" y="158" as="targetPoint" />
          </mxGeometry>
        </mxCell>
        <mxCell id="OfcOoXMwRskthWxn-bnW-10" style="edgeStyle=orthogonalEdgeStyle;rounded=0;orthogonalLoop=1;jettySize=auto;html=1;exitX=0.5;exitY=1;exitDx=0;exitDy=0;" edge="1" parent="1" source="OfcOoXMwRskthWxn-bnW-11">
          <mxGeometry relative="1" as="geometry">
            <mxPoint x="2045" y="260" as="targetPoint" />
          </mxGeometry>
        </mxCell>
        <mxCell id="OfcOoXMwRskthWxn-bnW-11" value="&lt;div&gt;Selecionar&lt;/div&gt;&lt;div&gt;Botão Criar&lt;/div&gt;" style="rounded=1;whiteSpace=wrap;html=1;" vertex="1" parent="1">
          <mxGeometry x="1995" y="166" width="100" height="50" as="geometry" />
        </mxCell>
        <mxCell id="OfcOoXMwRskthWxn-bnW-28" value="" style="ellipse;html=1;shape=endState;fillColor=#000000;strokeColor=#ff0000;" vertex="1" parent="1">
          <mxGeometry x="2030" y="710" width="30" height="30" as="geometry" />
        </mxCell>
        <mxCell id="OfcOoXMwRskthWxn-bnW-29" value="&lt;div&gt;Adicionar&lt;/div&gt;&lt;div&gt;Serviços&lt;br&gt;&lt;/div&gt;" style="rounded=1;whiteSpace=wrap;html=1;" vertex="1" parent="1">
          <mxGeometry x="1870" y="290" width="60" height="40" as="geometry" />
        </mxCell>
        <mxCell id="OfcOoXMwRskthWxn-bnW-30" value="&lt;div&gt;Indicar&lt;/div&gt;&lt;div&gt;Quantidade&lt;br&gt;&lt;/div&gt;" style="rounded=1;whiteSpace=wrap;html=1;" vertex="1" parent="1">
          <mxGeometry x="1867.5" y="360" width="70" height="40" as="geometry" />
        </mxCell>
        <mxCell id="OfcOoXMwRskthWxn-bnW-31" value="&lt;div&gt;Metodo&lt;/div&gt;&lt;div&gt;Pagamento&lt;br&gt;&lt;/div&gt;" style="rounded=1;whiteSpace=wrap;html=1;" vertex="1" parent="1">
          <mxGeometry x="1937.5" y="290" width="75" height="40" as="geometry" />
        </mxCell>
        <mxCell id="OfcOoXMwRskthWxn-bnW-32" value="&lt;div&gt;Indicar&lt;/div&gt;&lt;div&gt;Cliente&lt;br&gt;&lt;/div&gt;" style="rounded=1;whiteSpace=wrap;html=1;" vertex="1" parent="1">
          <mxGeometry x="2020" y="290" width="50" height="40" as="geometry" />
        </mxCell>
        <mxCell id="OfcOoXMwRskthWxn-bnW-33" value="&lt;div&gt;Usar&lt;/div&gt;&lt;div&gt;Contribuite&lt;br&gt;&lt;/div&gt;" style="rounded=1;whiteSpace=wrap;html=1;" vertex="1" parent="1">
          <mxGeometry x="2080" y="290" width="70" height="40" as="geometry" />
        </mxCell>
        <mxCell id="OfcOoXMwRskthWxn-bnW-34" value="&lt;div&gt;Indicar&lt;/div&gt;&lt;div&gt;Data&lt;br&gt;&lt;/div&gt;" style="rounded=1;whiteSpace=wrap;html=1;" vertex="1" parent="1">
          <mxGeometry x="2160" y="290" width="50" height="40" as="geometry" />
        </mxCell>
        <mxCell id="OfcOoXMwRskthWxn-bnW-35" value="" style="endArrow=none;html=1;rounded=0;" edge="1" parent="1">
          <mxGeometry width="50" height="50" relative="1" as="geometry">
            <mxPoint x="1885" y="260" as="sourcePoint" />
            <mxPoint x="2205" y="260" as="targetPoint" />
          </mxGeometry>
        </mxCell>
        <mxCell id="OfcOoXMwRskthWxn-bnW-36" style="edgeStyle=orthogonalEdgeStyle;rounded=0;orthogonalLoop=1;jettySize=auto;html=1;" edge="1" parent="1">
          <mxGeometry relative="1" as="geometry">
            <mxPoint x="1900" y="260" as="sourcePoint" />
            <mxPoint x="1899.71" y="292" as="targetPoint" />
          </mxGeometry>
        </mxCell>
        <mxCell id="OfcOoXMwRskthWxn-bnW-37" style="edgeStyle=orthogonalEdgeStyle;rounded=0;orthogonalLoop=1;jettySize=auto;html=1;" edge="1" parent="1">
          <mxGeometry relative="1" as="geometry">
            <mxPoint x="1975.09" y="258" as="sourcePoint" />
            <mxPoint x="1974.8" y="290" as="targetPoint" />
          </mxGeometry>
        </mxCell>
        <mxCell id="OfcOoXMwRskthWxn-bnW-38" style="edgeStyle=orthogonalEdgeStyle;rounded=0;orthogonalLoop=1;jettySize=auto;html=1;" edge="1" parent="1">
          <mxGeometry relative="1" as="geometry">
            <mxPoint x="2045.09" y="258" as="sourcePoint" />
            <mxPoint x="2044.8" y="290" as="targetPoint" />
          </mxGeometry>
        </mxCell>
        <mxCell id="OfcOoXMwRskthWxn-bnW-39" style="edgeStyle=orthogonalEdgeStyle;rounded=0;orthogonalLoop=1;jettySize=auto;html=1;" edge="1" parent="1">
          <mxGeometry relative="1" as="geometry">
            <mxPoint x="2115.09" y="258" as="sourcePoint" />
            <mxPoint x="2114.8" y="290" as="targetPoint" />
          </mxGeometry>
        </mxCell>
        <mxCell id="OfcOoXMwRskthWxn-bnW-40" style="edgeStyle=orthogonalEdgeStyle;rounded=0;orthogonalLoop=1;jettySize=auto;html=1;" edge="1" parent="1">
          <mxGeometry relative="1" as="geometry">
            <mxPoint x="2185.09" y="258" as="sourcePoint" />
            <mxPoint x="2184.8" y="290" as="targetPoint" />
          </mxGeometry>
        </mxCell>
        <mxCell id="OfcOoXMwRskthWxn-bnW-41" value="" style="endArrow=none;html=1;rounded=0;" edge="1" parent="1">
          <mxGeometry width="50" height="50" relative="1" as="geometry">
            <mxPoint x="1885" y="430" as="sourcePoint" />
            <mxPoint x="2205" y="430" as="targetPoint" />
          </mxGeometry>
        </mxCell>
        <mxCell id="OfcOoXMwRskthWxn-bnW-42" style="edgeStyle=orthogonalEdgeStyle;rounded=0;orthogonalLoop=1;jettySize=auto;html=1;" edge="1" parent="1">
          <mxGeometry relative="1" as="geometry">
            <mxPoint x="1900.09" y="330" as="sourcePoint" />
            <mxPoint x="1899.8" y="362" as="targetPoint" />
          </mxGeometry>
        </mxCell>
        <mxCell id="OfcOoXMwRskthWxn-bnW-43" style="edgeStyle=orthogonalEdgeStyle;rounded=0;orthogonalLoop=1;jettySize=auto;html=1;" edge="1" parent="1">
          <mxGeometry relative="1" as="geometry">
            <mxPoint x="1902.59" y="400" as="sourcePoint" />
            <mxPoint x="1902.3" y="432" as="targetPoint" />
          </mxGeometry>
        </mxCell>
        <mxCell id="OfcOoXMwRskthWxn-bnW-44" style="edgeStyle=orthogonalEdgeStyle;rounded=0;orthogonalLoop=1;jettySize=auto;html=1;" edge="1" parent="1">
          <mxGeometry relative="1" as="geometry">
            <mxPoint x="1975.09" y="330" as="sourcePoint" />
            <mxPoint x="1975" y="430" as="targetPoint" />
          </mxGeometry>
        </mxCell>
        <mxCell id="OfcOoXMwRskthWxn-bnW-45" style="edgeStyle=orthogonalEdgeStyle;rounded=0;orthogonalLoop=1;jettySize=auto;html=1;" edge="1" parent="1">
          <mxGeometry relative="1" as="geometry">
            <mxPoint x="2044.79" y="330" as="sourcePoint" />
            <mxPoint x="2044.7" y="430" as="targetPoint" />
          </mxGeometry>
        </mxCell>
        <mxCell id="OfcOoXMwRskthWxn-bnW-46" style="edgeStyle=orthogonalEdgeStyle;rounded=0;orthogonalLoop=1;jettySize=auto;html=1;" edge="1" parent="1">
          <mxGeometry relative="1" as="geometry">
            <mxPoint x="2120.09" y="330" as="sourcePoint" />
            <mxPoint x="2120" y="430" as="targetPoint" />
          </mxGeometry>
        </mxCell>
        <mxCell id="OfcOoXMwRskthWxn-bnW-47" style="edgeStyle=orthogonalEdgeStyle;rounded=0;orthogonalLoop=1;jettySize=auto;html=1;" edge="1" parent="1">
          <mxGeometry relative="1" as="geometry">
            <mxPoint x="2184.79" y="330" as="sourcePoint" />
            <mxPoint x="2184.7" y="430" as="targetPoint" />
          </mxGeometry>
        </mxCell>
        <mxCell id="OfcOoXMwRskthWxn-bnW-48" style="edgeStyle=orthogonalEdgeStyle;rounded=0;orthogonalLoop=1;jettySize=auto;html=1;" edge="1" parent="1">
          <mxGeometry relative="1" as="geometry">
            <mxPoint x="2044.87" y="430" as="sourcePoint" />
            <mxPoint x="2045" y="480" as="targetPoint" />
          </mxGeometry>
        </mxCell>
        <mxCell id="OfcOoXMwRskthWxn-bnW-64" style="edgeStyle=orthogonalEdgeStyle;rounded=0;orthogonalLoop=1;jettySize=auto;html=1;exitX=0.5;exitY=1;exitDx=0;exitDy=0;" edge="1" parent="1" source="OfcOoXMwRskthWxn-bnW-49">
          <mxGeometry relative="1" as="geometry">
            <mxPoint x="1945" y="660" as="targetPoint" />
          </mxGeometry>
        </mxCell>
        <mxCell id="OfcOoXMwRskthWxn-bnW-49" value="&lt;div&gt;Descartar&lt;/div&gt;Orçamento" style="rounded=1;whiteSpace=wrap;html=1;" vertex="1" parent="1">
          <mxGeometry x="1910" y="510" width="70" height="40" as="geometry" />
        </mxCell>
        <mxCell id="OfcOoXMwRskthWxn-bnW-61" style="edgeStyle=orthogonalEdgeStyle;rounded=0;orthogonalLoop=1;jettySize=auto;html=1;exitX=0.5;exitY=1;exitDx=0;exitDy=0;entryX=0.5;entryY=0;entryDx=0;entryDy=0;" edge="1" parent="1" source="OfcOoXMwRskthWxn-bnW-50" target="OfcOoXMwRskthWxn-bnW-60">
          <mxGeometry relative="1" as="geometry" />
        </mxCell>
        <mxCell id="OfcOoXMwRskthWxn-bnW-50" value="&lt;div&gt;Guardar&lt;/div&gt;&lt;div&gt;Orçamento&lt;/div&gt;" style="rounded=1;whiteSpace=wrap;html=1;" vertex="1" parent="1">
          <mxGeometry x="2090" y="510" width="70" height="40" as="geometry" />
        </mxCell>
        <mxCell id="OfcOoXMwRskthWxn-bnW-57" value="" style="endArrow=none;html=1;rounded=0;" edge="1" parent="1">
          <mxGeometry width="50" height="50" relative="1" as="geometry">
            <mxPoint x="1890" y="480" as="sourcePoint" />
            <mxPoint x="2210" y="480" as="targetPoint" />
          </mxGeometry>
        </mxCell>
        <mxCell id="OfcOoXMwRskthWxn-bnW-58" style="edgeStyle=orthogonalEdgeStyle;rounded=0;orthogonalLoop=1;jettySize=auto;html=1;" edge="1" parent="1">
          <mxGeometry relative="1" as="geometry">
            <mxPoint x="1937.5" y="480" as="sourcePoint" />
            <mxPoint x="1937.21" y="512" as="targetPoint" />
          </mxGeometry>
        </mxCell>
        <mxCell id="OfcOoXMwRskthWxn-bnW-59" style="edgeStyle=orthogonalEdgeStyle;rounded=0;orthogonalLoop=1;jettySize=auto;html=1;" edge="1" parent="1">
          <mxGeometry relative="1" as="geometry">
            <mxPoint x="2125.15" y="478" as="sourcePoint" />
            <mxPoint x="2124.86" y="510" as="targetPoint" />
          </mxGeometry>
        </mxCell>
        <mxCell id="OfcOoXMwRskthWxn-bnW-63" style="edgeStyle=orthogonalEdgeStyle;rounded=0;orthogonalLoop=1;jettySize=auto;html=1;exitX=0.5;exitY=1;exitDx=0;exitDy=0;" edge="1" parent="1" source="OfcOoXMwRskthWxn-bnW-60">
          <mxGeometry relative="1" as="geometry">
            <mxPoint x="2120" y="660" as="targetPoint" />
          </mxGeometry>
        </mxCell>
        <mxCell id="OfcOoXMwRskthWxn-bnW-60" value="&lt;div&gt;Transferir&lt;/div&gt;&lt;div&gt;Orçamento&lt;/div&gt;" style="rounded=1;whiteSpace=wrap;html=1;" vertex="1" parent="1">
          <mxGeometry x="2290" y="580" width="70" height="40" as="geometry" />
        </mxCell>
        <mxCell id="OfcOoXMwRskthWxn-bnW-62" value="" style="endArrow=none;html=1;rounded=0;" edge="1" parent="1">
          <mxGeometry width="50" height="50" relative="1" as="geometry">
            <mxPoint x="1885" y="660" as="sourcePoint" />
            <mxPoint x="2205" y="660" as="targetPoint" />
          </mxGeometry>
        </mxCell>
        <mxCell id="OfcOoXMwRskthWxn-bnW-66" style="edgeStyle=orthogonalEdgeStyle;rounded=0;orthogonalLoop=1;jettySize=auto;html=1;" edge="1" parent="1">
          <mxGeometry relative="1" as="geometry">
            <mxPoint x="2040" y="660" as="sourcePoint" />
            <mxPoint x="2040.13" y="710" as="targetPoint" />
            <Array as="points">
              <mxPoint x="2041" y="660" />
              <mxPoint x="2041" y="685" />
              <mxPoint x="2040" y="685" />
            </Array>
          </mxGeometry>
        </mxCell>
        <mxCell id="OfcOoXMwRskthWxn-bnW-67" value="&lt;div&gt;Editar&amp;nbsp;&lt;/div&gt;&lt;div&gt;Orçamentos&lt;/div&gt;" style="text;html=1;align=center;verticalAlign=middle;resizable=0;points=[];autosize=1;strokeColor=none;fillColor=none;" vertex="1" parent="1">
          <mxGeometry x="2564" y="75" width="90" height="40" as="geometry" />
        </mxCell>
        <mxCell id="OfcOoXMwRskthWxn-bnW-68" value="" style="endArrow=none;html=1;rounded=0;" edge="1" parent="1">
          <mxGeometry width="50" height="50" relative="1" as="geometry">
            <mxPoint x="2664" y="710" as="sourcePoint" />
            <mxPoint x="2664" y="70" as="targetPoint" />
          </mxGeometry>
        </mxCell>
        <mxCell id="OfcOoXMwRskthWxn-bnW-69" value="" style="endArrow=none;html=1;rounded=0;" edge="1" parent="1">
          <mxGeometry width="50" height="50" relative="1" as="geometry">
            <mxPoint x="3224" y="710" as="sourcePoint" />
            <mxPoint x="3224" y="70" as="targetPoint" />
          </mxGeometry>
        </mxCell>
        <mxCell id="OfcOoXMwRskthWxn-bnW-70" value="" style="endArrow=none;html=1;rounded=0;" edge="1" parent="1">
          <mxGeometry width="50" height="50" relative="1" as="geometry">
            <mxPoint x="3224" y="110" as="sourcePoint" />
            <mxPoint x="2664" y="110" as="targetPoint" />
          </mxGeometry>
        </mxCell>
        <mxCell id="OfcOoXMwRskthWxn-bnW-71" value="" style="endArrow=none;html=1;rounded=0;" edge="1" parent="1">
          <mxGeometry width="50" height="50" relative="1" as="geometry">
            <mxPoint x="3024" y="710" as="sourcePoint" />
            <mxPoint x="3024" y="70" as="targetPoint" />
          </mxGeometry>
        </mxCell>
        <mxCell id="OfcOoXMwRskthWxn-bnW-72" value="Utilizador" style="text;html=1;align=center;verticalAlign=middle;resizable=0;points=[];autosize=1;strokeColor=none;fillColor=none;" vertex="1" parent="1">
          <mxGeometry x="2774" y="70" width="70" height="30" as="geometry" />
        </mxCell>
        <mxCell id="OfcOoXMwRskthWxn-bnW-73" value="Sistema" style="text;html=1;align=center;verticalAlign=middle;resizable=0;points=[];autosize=1;strokeColor=none;fillColor=none;" vertex="1" parent="1">
          <mxGeometry x="3094" y="70" width="70" height="30" as="geometry" />
        </mxCell>
        <mxCell id="OfcOoXMwRskthWxn-bnW-74" value="" style="ellipse;html=1;shape=startState;fillColor=#000000;strokeColor=#ff0000;" vertex="1" parent="1">
          <mxGeometry x="2834" y="128" width="30" height="30" as="geometry" />
        </mxCell>
        <mxCell id="OfcOoXMwRskthWxn-bnW-75" value="" style="edgeStyle=orthogonalEdgeStyle;html=1;verticalAlign=bottom;endArrow=open;endSize=8;strokeColor=#ff0000;rounded=0;entryX=0.5;entryY=0;entryDx=0;entryDy=0;" edge="1" parent="1" source="OfcOoXMwRskthWxn-bnW-74" target="OfcOoXMwRskthWxn-bnW-77">
          <mxGeometry relative="1" as="geometry">
            <mxPoint x="2849" y="188" as="targetPoint" />
          </mxGeometry>
        </mxCell>
        <mxCell id="OfcOoXMwRskthWxn-bnW-76" style="edgeStyle=orthogonalEdgeStyle;rounded=0;orthogonalLoop=1;jettySize=auto;html=1;exitX=0.5;exitY=1;exitDx=0;exitDy=0;" edge="1" parent="1" source="OfcOoXMwRskthWxn-bnW-77">
          <mxGeometry relative="1" as="geometry">
            <mxPoint x="2849" y="290" as="targetPoint" />
          </mxGeometry>
        </mxCell>
        <mxCell id="OfcOoXMwRskthWxn-bnW-77" value="&lt;div&gt;Selecionar&lt;/div&gt;&lt;div&gt;Orçamento&lt;br&gt;&lt;/div&gt;" style="rounded=1;whiteSpace=wrap;html=1;" vertex="1" parent="1">
          <mxGeometry x="2799" y="196" width="100" height="50" as="geometry" />
        </mxCell>
        <mxCell id="OfcOoXMwRskthWxn-bnW-78" value="" style="ellipse;html=1;shape=endState;fillColor=#000000;strokeColor=#ff0000;" vertex="1" parent="1">
          <mxGeometry x="2834" y="740" width="30" height="30" as="geometry" />
        </mxCell>
        <mxCell id="OfcOoXMwRskthWxn-bnW-79" value="&lt;div&gt;Adicionar&lt;/div&gt;&lt;div&gt;Serviço&lt;/div&gt;" style="rounded=1;whiteSpace=wrap;html=1;" vertex="1" parent="1">
          <mxGeometry x="2674" y="320" width="60" height="40" as="geometry" />
        </mxCell>
        <mxCell id="OfcOoXMwRskthWxn-bnW-80" value="&lt;div&gt;Indicar&lt;/div&gt;&lt;div&gt;Quantidade&lt;br&gt;&lt;/div&gt;" style="rounded=1;whiteSpace=wrap;html=1;" vertex="1" parent="1">
          <mxGeometry x="2671.5" y="390" width="70" height="40" as="geometry" />
        </mxCell>
        <mxCell id="OfcOoXMwRskthWxn-bnW-81" value="Remover&lt;br&gt;Serviço" style="rounded=1;whiteSpace=wrap;html=1;" vertex="1" parent="1">
          <mxGeometry x="2741.5" y="320" width="58.5" height="40" as="geometry" />
        </mxCell>
        <mxCell id="OfcOoXMwRskthWxn-bnW-82" value="&lt;div&gt;Alterar&lt;/div&gt;&lt;div&gt;Quantidade&lt;/div&gt;" style="rounded=1;whiteSpace=wrap;html=1;" vertex="1" parent="1">
          <mxGeometry x="2810" y="320" width="64" height="40" as="geometry" />
        </mxCell>
        <mxCell id="OfcOoXMwRskthWxn-bnW-83" value="&lt;div&gt;Alterar&lt;br&gt;&lt;/div&gt;&lt;div&gt;Contribuite&lt;br&gt;&lt;/div&gt;" style="rounded=1;whiteSpace=wrap;html=1;" vertex="1" parent="1">
          <mxGeometry x="2884" y="320" width="66" height="40" as="geometry" />
        </mxCell>
        <mxCell id="OfcOoXMwRskthWxn-bnW-84" value="Alterar&lt;br&gt;Pagamento" style="rounded=1;whiteSpace=wrap;html=1;" vertex="1" parent="1">
          <mxGeometry x="2954" y="320" width="66" height="40" as="geometry" />
        </mxCell>
        <mxCell id="OfcOoXMwRskthWxn-bnW-85" value="" style="endArrow=none;html=1;rounded=0;" edge="1" parent="1">
          <mxGeometry width="50" height="50" relative="1" as="geometry">
            <mxPoint x="2689" y="290" as="sourcePoint" />
            <mxPoint x="3009" y="290" as="targetPoint" />
          </mxGeometry>
        </mxCell>
        <mxCell id="OfcOoXMwRskthWxn-bnW-86" style="edgeStyle=orthogonalEdgeStyle;rounded=0;orthogonalLoop=1;jettySize=auto;html=1;" edge="1" parent="1">
          <mxGeometry relative="1" as="geometry">
            <mxPoint x="2704" y="290" as="sourcePoint" />
            <mxPoint x="2703.71" y="322" as="targetPoint" />
          </mxGeometry>
        </mxCell>
        <mxCell id="OfcOoXMwRskthWxn-bnW-87" style="edgeStyle=orthogonalEdgeStyle;rounded=0;orthogonalLoop=1;jettySize=auto;html=1;" edge="1" parent="1">
          <mxGeometry relative="1" as="geometry">
            <mxPoint x="2779.09" y="288" as="sourcePoint" />
            <mxPoint x="2778.8" y="320" as="targetPoint" />
          </mxGeometry>
        </mxCell>
        <mxCell id="OfcOoXMwRskthWxn-bnW-88" style="edgeStyle=orthogonalEdgeStyle;rounded=0;orthogonalLoop=1;jettySize=auto;html=1;" edge="1" parent="1">
          <mxGeometry relative="1" as="geometry">
            <mxPoint x="2849.09" y="288" as="sourcePoint" />
            <mxPoint x="2848.8" y="320" as="targetPoint" />
          </mxGeometry>
        </mxCell>
        <mxCell id="OfcOoXMwRskthWxn-bnW-89" style="edgeStyle=orthogonalEdgeStyle;rounded=0;orthogonalLoop=1;jettySize=auto;html=1;" edge="1" parent="1">
          <mxGeometry relative="1" as="geometry">
            <mxPoint x="2919.09" y="288" as="sourcePoint" />
            <mxPoint x="2918.8" y="320" as="targetPoint" />
          </mxGeometry>
        </mxCell>
        <mxCell id="OfcOoXMwRskthWxn-bnW-90" style="edgeStyle=orthogonalEdgeStyle;rounded=0;orthogonalLoop=1;jettySize=auto;html=1;" edge="1" parent="1">
          <mxGeometry relative="1" as="geometry">
            <mxPoint x="2989.09" y="288" as="sourcePoint" />
            <mxPoint x="2988.8" y="320" as="targetPoint" />
          </mxGeometry>
        </mxCell>
        <mxCell id="OfcOoXMwRskthWxn-bnW-91" value="" style="endArrow=none;html=1;rounded=0;" edge="1" parent="1">
          <mxGeometry width="50" height="50" relative="1" as="geometry">
            <mxPoint x="2689" y="460" as="sourcePoint" />
            <mxPoint x="3009" y="460" as="targetPoint" />
          </mxGeometry>
        </mxCell>
        <mxCell id="OfcOoXMwRskthWxn-bnW-92" style="edgeStyle=orthogonalEdgeStyle;rounded=0;orthogonalLoop=1;jettySize=auto;html=1;" edge="1" parent="1">
          <mxGeometry relative="1" as="geometry">
            <mxPoint x="2704.09" y="360" as="sourcePoint" />
            <mxPoint x="2703.8" y="392" as="targetPoint" />
          </mxGeometry>
        </mxCell>
        <mxCell id="OfcOoXMwRskthWxn-bnW-93" style="edgeStyle=orthogonalEdgeStyle;rounded=0;orthogonalLoop=1;jettySize=auto;html=1;" edge="1" parent="1">
          <mxGeometry relative="1" as="geometry">
            <mxPoint x="2706.59" y="430" as="sourcePoint" />
            <mxPoint x="2706.3" y="462" as="targetPoint" />
          </mxGeometry>
        </mxCell>
        <mxCell id="OfcOoXMwRskthWxn-bnW-94" style="edgeStyle=orthogonalEdgeStyle;rounded=0;orthogonalLoop=1;jettySize=auto;html=1;" edge="1" parent="1">
          <mxGeometry relative="1" as="geometry">
            <mxPoint x="2779.09" y="360" as="sourcePoint" />
            <mxPoint x="2779" y="460" as="targetPoint" />
          </mxGeometry>
        </mxCell>
        <mxCell id="OfcOoXMwRskthWxn-bnW-95" style="edgeStyle=orthogonalEdgeStyle;rounded=0;orthogonalLoop=1;jettySize=auto;html=1;" edge="1" parent="1">
          <mxGeometry relative="1" as="geometry">
            <mxPoint x="2848.79" y="360" as="sourcePoint" />
            <mxPoint x="2848.7" y="460" as="targetPoint" />
          </mxGeometry>
        </mxCell>
        <mxCell id="OfcOoXMwRskthWxn-bnW-96" style="edgeStyle=orthogonalEdgeStyle;rounded=0;orthogonalLoop=1;jettySize=auto;html=1;" edge="1" parent="1">
          <mxGeometry relative="1" as="geometry">
            <mxPoint x="2924.09" y="360" as="sourcePoint" />
            <mxPoint x="2924" y="460" as="targetPoint" />
          </mxGeometry>
        </mxCell>
        <mxCell id="OfcOoXMwRskthWxn-bnW-97" style="edgeStyle=orthogonalEdgeStyle;rounded=0;orthogonalLoop=1;jettySize=auto;html=1;" edge="1" parent="1">
          <mxGeometry relative="1" as="geometry">
            <mxPoint x="2988.79" y="360" as="sourcePoint" />
            <mxPoint x="2988.7" y="460" as="targetPoint" />
          </mxGeometry>
        </mxCell>
        <mxCell id="OfcOoXMwRskthWxn-bnW-98" style="edgeStyle=orthogonalEdgeStyle;rounded=0;orthogonalLoop=1;jettySize=auto;html=1;" edge="1" parent="1">
          <mxGeometry relative="1" as="geometry">
            <mxPoint x="2848.87" y="460" as="sourcePoint" />
            <mxPoint x="2849" y="510" as="targetPoint" />
          </mxGeometry>
        </mxCell>
        <mxCell id="OfcOoXMwRskthWxn-bnW-99" style="edgeStyle=orthogonalEdgeStyle;rounded=0;orthogonalLoop=1;jettySize=auto;html=1;exitX=0.5;exitY=1;exitDx=0;exitDy=0;" edge="1" parent="1" source="OfcOoXMwRskthWxn-bnW-100">
          <mxGeometry relative="1" as="geometry">
            <mxPoint x="2749" y="690" as="targetPoint" />
          </mxGeometry>
        </mxCell>
        <mxCell id="OfcOoXMwRskthWxn-bnW-100" value="&lt;div&gt;Descartar&lt;/div&gt;Alteração" style="rounded=1;whiteSpace=wrap;html=1;" vertex="1" parent="1">
          <mxGeometry x="2714" y="540" width="70" height="40" as="geometry" />
        </mxCell>
        <mxCell id="OfcOoXMwRskthWxn-bnW-101" style="edgeStyle=orthogonalEdgeStyle;rounded=0;orthogonalLoop=1;jettySize=auto;html=1;exitX=0.5;exitY=1;exitDx=0;exitDy=0;entryX=0.5;entryY=0;entryDx=0;entryDy=0;" edge="1" parent="1" source="OfcOoXMwRskthWxn-bnW-102" target="OfcOoXMwRskthWxn-bnW-107">
          <mxGeometry relative="1" as="geometry" />
        </mxCell>
        <mxCell id="OfcOoXMwRskthWxn-bnW-102" value="&lt;div&gt;Guardar&lt;/div&gt;&lt;div&gt;Alteração&lt;/div&gt;" style="rounded=1;whiteSpace=wrap;html=1;" vertex="1" parent="1">
          <mxGeometry x="2894" y="540" width="70" height="40" as="geometry" />
        </mxCell>
        <mxCell id="OfcOoXMwRskthWxn-bnW-103" value="" style="endArrow=none;html=1;rounded=0;" edge="1" parent="1">
          <mxGeometry width="50" height="50" relative="1" as="geometry">
            <mxPoint x="2694" y="510" as="sourcePoint" />
            <mxPoint x="3014" y="510" as="targetPoint" />
          </mxGeometry>
        </mxCell>
        <mxCell id="OfcOoXMwRskthWxn-bnW-104" style="edgeStyle=orthogonalEdgeStyle;rounded=0;orthogonalLoop=1;jettySize=auto;html=1;" edge="1" parent="1">
          <mxGeometry relative="1" as="geometry">
            <mxPoint x="2741.5" y="510" as="sourcePoint" />
            <mxPoint x="2741.21" y="542" as="targetPoint" />
          </mxGeometry>
        </mxCell>
        <mxCell id="OfcOoXMwRskthWxn-bnW-105" style="edgeStyle=orthogonalEdgeStyle;rounded=0;orthogonalLoop=1;jettySize=auto;html=1;" edge="1" parent="1">
          <mxGeometry relative="1" as="geometry">
            <mxPoint x="2929.15" y="508" as="sourcePoint" />
            <mxPoint x="2928.86" y="540" as="targetPoint" />
          </mxGeometry>
        </mxCell>
        <mxCell id="OfcOoXMwRskthWxn-bnW-106" style="edgeStyle=orthogonalEdgeStyle;rounded=0;orthogonalLoop=1;jettySize=auto;html=1;exitX=0.5;exitY=1;exitDx=0;exitDy=0;" edge="1" parent="1" source="OfcOoXMwRskthWxn-bnW-107">
          <mxGeometry relative="1" as="geometry">
            <mxPoint x="2924" y="690" as="targetPoint" />
          </mxGeometry>
        </mxCell>
        <mxCell id="OfcOoXMwRskthWxn-bnW-107" value="&lt;div&gt;Transferir&lt;/div&gt;&lt;div&gt;Orçamento&lt;/div&gt;" style="rounded=1;whiteSpace=wrap;html=1;" vertex="1" parent="1">
          <mxGeometry x="3094" y="610" width="70" height="40" as="geometry" />
        </mxCell>
        <mxCell id="OfcOoXMwRskthWxn-bnW-108" value="" style="endArrow=none;html=1;rounded=0;" edge="1" parent="1">
          <mxGeometry width="50" height="50" relative="1" as="geometry">
            <mxPoint x="2689" y="690" as="sourcePoint" />
            <mxPoint x="3009" y="690" as="targetPoint" />
          </mxGeometry>
        </mxCell>
        <mxCell id="OfcOoXMwRskthWxn-bnW-109" style="edgeStyle=orthogonalEdgeStyle;rounded=0;orthogonalLoop=1;jettySize=auto;html=1;" edge="1" parent="1">
          <mxGeometry relative="1" as="geometry">
            <mxPoint x="2844" y="690" as="sourcePoint" />
            <mxPoint x="2844.13" y="740" as="targetPoint" />
            <Array as="points">
              <mxPoint x="2845" y="690" />
              <mxPoint x="2845" y="715" />
              <mxPoint x="2844" y="715" />
            </Array>
          </mxGeometry>
        </mxCell>
        <mxCell id="OfcOoXMwRskthWxn-bnW-157" value="Clientes" style="text;html=1;align=center;verticalAlign=middle;resizable=0;points=[];autosize=1;strokeColor=none;fillColor=none;" vertex="1" parent="1">
          <mxGeometry x="100" y="1290" width="70" height="30" as="geometry" />
        </mxCell>
        <mxCell id="OfcOoXMwRskthWxn-bnW-158" value="" style="endArrow=none;html=1;rounded=0;" edge="1" parent="1">
          <mxGeometry width="50" height="50" relative="1" as="geometry">
            <mxPoint x="190" y="1920" as="sourcePoint" />
            <mxPoint x="190" y="1280" as="targetPoint" />
          </mxGeometry>
        </mxCell>
        <mxCell id="OfcOoXMwRskthWxn-bnW-159" value="" style="endArrow=none;html=1;rounded=0;" edge="1" parent="1">
          <mxGeometry width="50" height="50" relative="1" as="geometry">
            <mxPoint x="750" y="1920" as="sourcePoint" />
            <mxPoint x="750" y="1280" as="targetPoint" />
          </mxGeometry>
        </mxCell>
        <mxCell id="OfcOoXMwRskthWxn-bnW-160" value="" style="endArrow=none;html=1;rounded=0;" edge="1" parent="1">
          <mxGeometry width="50" height="50" relative="1" as="geometry">
            <mxPoint x="750" y="1320" as="sourcePoint" />
            <mxPoint x="190" y="1320" as="targetPoint" />
          </mxGeometry>
        </mxCell>
        <mxCell id="OfcOoXMwRskthWxn-bnW-161" value="" style="endArrow=none;html=1;rounded=0;" edge="1" parent="1">
          <mxGeometry width="50" height="50" relative="1" as="geometry">
            <mxPoint x="470" y="1920" as="sourcePoint" />
            <mxPoint x="470" y="1280" as="targetPoint" />
          </mxGeometry>
        </mxCell>
        <mxCell id="OfcOoXMwRskthWxn-bnW-162" value="Utilizador" style="text;html=1;align=center;verticalAlign=middle;resizable=0;points=[];autosize=1;strokeColor=none;fillColor=none;" vertex="1" parent="1">
          <mxGeometry x="300" y="1280" width="70" height="30" as="geometry" />
        </mxCell>
        <mxCell id="OfcOoXMwRskthWxn-bnW-163" value="Sistema" style="text;html=1;align=center;verticalAlign=middle;resizable=0;points=[];autosize=1;strokeColor=none;fillColor=none;" vertex="1" parent="1">
          <mxGeometry x="580" y="1280" width="70" height="30" as="geometry" />
        </mxCell>
        <mxCell id="OfcOoXMwRskthWxn-bnW-164" value="" style="ellipse;html=1;shape=startState;fillColor=#000000;strokeColor=#ff0000;" vertex="1" parent="1">
          <mxGeometry x="320" y="1340" width="30" height="30" as="geometry" />
        </mxCell>
        <mxCell id="OfcOoXMwRskthWxn-bnW-165" value="" style="edgeStyle=orthogonalEdgeStyle;html=1;verticalAlign=bottom;endArrow=open;endSize=8;strokeColor=#ff0000;rounded=0;entryX=0.5;entryY=0;entryDx=0;entryDy=0;" edge="1" parent="1" source="OfcOoXMwRskthWxn-bnW-164" target="OfcOoXMwRskthWxn-bnW-167">
          <mxGeometry relative="1" as="geometry">
            <mxPoint x="335" y="1400" as="targetPoint" />
          </mxGeometry>
        </mxCell>
        <mxCell id="OfcOoXMwRskthWxn-bnW-166" style="edgeStyle=orthogonalEdgeStyle;rounded=0;orthogonalLoop=1;jettySize=auto;html=1;exitX=0.5;exitY=1;exitDx=0;exitDy=0;entryX=0.5;entryY=0;entryDx=0;entryDy=0;" edge="1" parent="1" source="OfcOoXMwRskthWxn-bnW-167" target="OfcOoXMwRskthWxn-bnW-169">
          <mxGeometry relative="1" as="geometry" />
        </mxCell>
        <mxCell id="OfcOoXMwRskthWxn-bnW-167" value="&lt;div&gt;Selecionar&lt;/div&gt;&lt;div&gt;Clientes&lt;/div&gt;" style="rounded=1;whiteSpace=wrap;html=1;" vertex="1" parent="1">
          <mxGeometry x="285" y="1430" width="100" height="50" as="geometry" />
        </mxCell>
        <mxCell id="OfcOoXMwRskthWxn-bnW-168" style="edgeStyle=orthogonalEdgeStyle;rounded=0;orthogonalLoop=1;jettySize=auto;html=1;exitX=0.5;exitY=1;exitDx=0;exitDy=0;" edge="1" parent="1" source="OfcOoXMwRskthWxn-bnW-169">
          <mxGeometry relative="1" as="geometry">
            <mxPoint x="335.0574712643679" y="1600" as="targetPoint" />
          </mxGeometry>
        </mxCell>
        <mxCell id="OfcOoXMwRskthWxn-bnW-169" value="&lt;div&gt;Visualizar&lt;/div&gt;&lt;div&gt;Listagem&lt;br&gt;&lt;/div&gt;" style="rounded=1;whiteSpace=wrap;html=1;" vertex="1" parent="1">
          <mxGeometry x="285" y="1520" width="100" height="50" as="geometry" />
        </mxCell>
        <mxCell id="OfcOoXMwRskthWxn-bnW-170" value="Associar&lt;br&gt;&lt;div&gt;Cliente&lt;/div&gt;" style="rounded=1;whiteSpace=wrap;html=1;" vertex="1" parent="1">
          <mxGeometry x="220" y="1630" width="70" height="50" as="geometry" />
        </mxCell>
        <mxCell id="OfcOoXMwRskthWxn-bnW-171" value="Editar&lt;br&gt;&lt;div&gt;Cliente&lt;/div&gt;" style="rounded=1;whiteSpace=wrap;html=1;" vertex="1" parent="1">
          <mxGeometry x="300" y="1630" width="70" height="50" as="geometry" />
        </mxCell>
        <mxCell id="OfcOoXMwRskthWxn-bnW-172" value="&lt;div&gt;Eliminar&lt;/div&gt;&lt;div&gt;Cliente&lt;/div&gt;" style="rounded=1;whiteSpace=wrap;html=1;" vertex="1" parent="1">
          <mxGeometry x="385" y="1630" width="70" height="50" as="geometry" />
        </mxCell>
        <mxCell id="OfcOoXMwRskthWxn-bnW-173" style="edgeStyle=orthogonalEdgeStyle;rounded=0;orthogonalLoop=1;jettySize=auto;html=1;exitX=0.5;exitY=1;exitDx=0;exitDy=0;entryX=0.5;entryY=0;entryDx=0;entryDy=0;" edge="1" parent="1" source="OfcOoXMwRskthWxn-bnW-174" target="OfcOoXMwRskthWxn-bnW-184">
          <mxGeometry relative="1" as="geometry" />
        </mxCell>
        <mxCell id="OfcOoXMwRskthWxn-bnW-174" value="Atualizar&lt;br&gt;DataBase" style="rounded=1;whiteSpace=wrap;html=1;" vertex="1" parent="1">
          <mxGeometry x="565" y="1775" width="100" height="50" as="geometry" />
        </mxCell>
        <mxCell id="OfcOoXMwRskthWxn-bnW-175" value="" style="endArrow=none;html=1;rounded=0;" edge="1" parent="1">
          <mxGeometry width="50" height="50" relative="1" as="geometry">
            <mxPoint x="240" y="1600" as="sourcePoint" />
            <mxPoint x="430" y="1600" as="targetPoint" />
          </mxGeometry>
        </mxCell>
        <mxCell id="OfcOoXMwRskthWxn-bnW-176" value="" style="endArrow=none;html=1;rounded=0;" edge="1" parent="1">
          <mxGeometry width="50" height="50" relative="1" as="geometry">
            <mxPoint x="240" y="1710" as="sourcePoint" />
            <mxPoint x="430" y="1710" as="targetPoint" />
          </mxGeometry>
        </mxCell>
        <mxCell id="OfcOoXMwRskthWxn-bnW-177" style="edgeStyle=orthogonalEdgeStyle;rounded=0;orthogonalLoop=1;jettySize=auto;html=1;exitX=0.5;exitY=1;exitDx=0;exitDy=0;" edge="1" parent="1">
          <mxGeometry relative="1" as="geometry">
            <mxPoint x="254.94747126436778" y="1630" as="targetPoint" />
            <mxPoint x="254.88999999999987" y="1600" as="sourcePoint" />
          </mxGeometry>
        </mxCell>
        <mxCell id="OfcOoXMwRskthWxn-bnW-178" style="edgeStyle=orthogonalEdgeStyle;rounded=0;orthogonalLoop=1;jettySize=auto;html=1;exitX=0.5;exitY=1;exitDx=0;exitDy=0;" edge="1" parent="1">
          <mxGeometry relative="1" as="geometry">
            <mxPoint x="334.9474712643678" y="1630" as="targetPoint" />
            <mxPoint x="334.8899999999999" y="1600" as="sourcePoint" />
          </mxGeometry>
        </mxCell>
        <mxCell id="OfcOoXMwRskthWxn-bnW-179" style="edgeStyle=orthogonalEdgeStyle;rounded=0;orthogonalLoop=1;jettySize=auto;html=1;exitX=0.5;exitY=1;exitDx=0;exitDy=0;" edge="1" parent="1">
          <mxGeometry relative="1" as="geometry">
            <mxPoint x="419.9474712643678" y="1630" as="targetPoint" />
            <mxPoint x="419.8899999999999" y="1600" as="sourcePoint" />
          </mxGeometry>
        </mxCell>
        <mxCell id="OfcOoXMwRskthWxn-bnW-180" style="edgeStyle=orthogonalEdgeStyle;rounded=0;orthogonalLoop=1;jettySize=auto;html=1;exitX=0.5;exitY=1;exitDx=0;exitDy=0;" edge="1" parent="1">
          <mxGeometry relative="1" as="geometry">
            <mxPoint x="254.94747126436778" y="1710" as="targetPoint" />
            <mxPoint x="254.88999999999987" y="1680" as="sourcePoint" />
          </mxGeometry>
        </mxCell>
        <mxCell id="OfcOoXMwRskthWxn-bnW-181" style="edgeStyle=orthogonalEdgeStyle;rounded=0;orthogonalLoop=1;jettySize=auto;html=1;exitX=0.5;exitY=1;exitDx=0;exitDy=0;" edge="1" parent="1">
          <mxGeometry relative="1" as="geometry">
            <mxPoint x="334.9474712643678" y="1710" as="targetPoint" />
            <mxPoint x="334.8899999999999" y="1680" as="sourcePoint" />
          </mxGeometry>
        </mxCell>
        <mxCell id="OfcOoXMwRskthWxn-bnW-182" style="edgeStyle=orthogonalEdgeStyle;rounded=0;orthogonalLoop=1;jettySize=auto;html=1;exitX=0.5;exitY=1;exitDx=0;exitDy=0;" edge="1" parent="1">
          <mxGeometry relative="1" as="geometry">
            <mxPoint x="419.9474712643678" y="1710" as="targetPoint" />
            <mxPoint x="419.8899999999999" y="1680" as="sourcePoint" />
          </mxGeometry>
        </mxCell>
        <mxCell id="OfcOoXMwRskthWxn-bnW-183" style="edgeStyle=orthogonalEdgeStyle;rounded=0;orthogonalLoop=1;jettySize=auto;html=1;exitX=0.5;exitY=1;exitDx=0;exitDy=0;" edge="1" parent="1" target="OfcOoXMwRskthWxn-bnW-174">
          <mxGeometry relative="1" as="geometry">
            <mxPoint x="334.71747126436776" y="1740" as="targetPoint" />
            <mxPoint x="334.65999999999985" y="1710" as="sourcePoint" />
            <Array as="points">
              <mxPoint x="335" y="1740" />
              <mxPoint x="615" y="1740" />
            </Array>
          </mxGeometry>
        </mxCell>
        <mxCell id="OfcOoXMwRskthWxn-bnW-184" value="" style="ellipse;html=1;shape=endState;fillColor=#000000;strokeColor=#ff0000;" vertex="1" parent="1">
          <mxGeometry x="600" y="1860" width="30" height="30" as="geometry" />
        </mxCell>
        <mxCell id="OfcOoXMwRskthWxn-bnW-185" value="Serviços" style="text;html=1;align=center;verticalAlign=middle;resizable=0;points=[];autosize=1;strokeColor=none;fillColor=none;" vertex="1" parent="1">
          <mxGeometry x="910" y="1290" width="70" height="30" as="geometry" />
        </mxCell>
        <mxCell id="OfcOoXMwRskthWxn-bnW-186" value="" style="endArrow=none;html=1;rounded=0;" edge="1" parent="1">
          <mxGeometry width="50" height="50" relative="1" as="geometry">
            <mxPoint x="1000" y="1920" as="sourcePoint" />
            <mxPoint x="1000" y="1280" as="targetPoint" />
          </mxGeometry>
        </mxCell>
        <mxCell id="OfcOoXMwRskthWxn-bnW-187" value="" style="endArrow=none;html=1;rounded=0;" edge="1" parent="1">
          <mxGeometry width="50" height="50" relative="1" as="geometry">
            <mxPoint x="1560" y="1920" as="sourcePoint" />
            <mxPoint x="1560" y="1280" as="targetPoint" />
          </mxGeometry>
        </mxCell>
        <mxCell id="OfcOoXMwRskthWxn-bnW-188" value="" style="endArrow=none;html=1;rounded=0;" edge="1" parent="1">
          <mxGeometry width="50" height="50" relative="1" as="geometry">
            <mxPoint x="1560" y="1320" as="sourcePoint" />
            <mxPoint x="1000" y="1320" as="targetPoint" />
          </mxGeometry>
        </mxCell>
        <mxCell id="OfcOoXMwRskthWxn-bnW-189" value="" style="endArrow=none;html=1;rounded=0;" edge="1" parent="1">
          <mxGeometry width="50" height="50" relative="1" as="geometry">
            <mxPoint x="1280" y="1920" as="sourcePoint" />
            <mxPoint x="1280" y="1280" as="targetPoint" />
          </mxGeometry>
        </mxCell>
        <mxCell id="OfcOoXMwRskthWxn-bnW-190" value="Utilizador" style="text;html=1;align=center;verticalAlign=middle;resizable=0;points=[];autosize=1;strokeColor=none;fillColor=none;" vertex="1" parent="1">
          <mxGeometry x="1110" y="1280" width="70" height="30" as="geometry" />
        </mxCell>
        <mxCell id="OfcOoXMwRskthWxn-bnW-191" value="Sistema" style="text;html=1;align=center;verticalAlign=middle;resizable=0;points=[];autosize=1;strokeColor=none;fillColor=none;" vertex="1" parent="1">
          <mxGeometry x="1390" y="1280" width="70" height="30" as="geometry" />
        </mxCell>
        <mxCell id="OfcOoXMwRskthWxn-bnW-192" value="" style="ellipse;html=1;shape=startState;fillColor=#000000;strokeColor=#ff0000;" vertex="1" parent="1">
          <mxGeometry x="1130" y="1340" width="30" height="30" as="geometry" />
        </mxCell>
        <mxCell id="OfcOoXMwRskthWxn-bnW-193" value="" style="edgeStyle=orthogonalEdgeStyle;html=1;verticalAlign=bottom;endArrow=open;endSize=8;strokeColor=#ff0000;rounded=0;entryX=0.5;entryY=0;entryDx=0;entryDy=0;" edge="1" parent="1" source="OfcOoXMwRskthWxn-bnW-192" target="OfcOoXMwRskthWxn-bnW-195">
          <mxGeometry relative="1" as="geometry">
            <mxPoint x="1145" y="1400" as="targetPoint" />
          </mxGeometry>
        </mxCell>
        <mxCell id="OfcOoXMwRskthWxn-bnW-194" style="edgeStyle=orthogonalEdgeStyle;rounded=0;orthogonalLoop=1;jettySize=auto;html=1;exitX=0.5;exitY=1;exitDx=0;exitDy=0;entryX=0.5;entryY=0;entryDx=0;entryDy=0;" edge="1" parent="1" source="OfcOoXMwRskthWxn-bnW-195" target="OfcOoXMwRskthWxn-bnW-197">
          <mxGeometry relative="1" as="geometry" />
        </mxCell>
        <mxCell id="OfcOoXMwRskthWxn-bnW-195" value="&lt;div&gt;Selecionar&lt;/div&gt;&lt;div&gt;Serviços&lt;/div&gt;" style="rounded=1;whiteSpace=wrap;html=1;" vertex="1" parent="1">
          <mxGeometry x="1095" y="1430" width="100" height="50" as="geometry" />
        </mxCell>
        <mxCell id="OfcOoXMwRskthWxn-bnW-196" style="edgeStyle=orthogonalEdgeStyle;rounded=0;orthogonalLoop=1;jettySize=auto;html=1;exitX=0.5;exitY=1;exitDx=0;exitDy=0;" edge="1" parent="1" source="OfcOoXMwRskthWxn-bnW-197">
          <mxGeometry relative="1" as="geometry">
            <mxPoint x="1145.057471264368" y="1600" as="targetPoint" />
          </mxGeometry>
        </mxCell>
        <mxCell id="OfcOoXMwRskthWxn-bnW-197" value="&lt;div&gt;Visualizar&lt;/div&gt;&lt;div&gt;Listagem&lt;br&gt;&lt;/div&gt;" style="rounded=1;whiteSpace=wrap;html=1;" vertex="1" parent="1">
          <mxGeometry x="1095" y="1520" width="100" height="50" as="geometry" />
        </mxCell>
        <mxCell id="OfcOoXMwRskthWxn-bnW-198" value="Agregar&lt;br&gt;&lt;div&gt;Serviço&lt;br&gt;&lt;/div&gt;" style="rounded=1;whiteSpace=wrap;html=1;" vertex="1" parent="1">
          <mxGeometry x="1030" y="1630" width="70" height="50" as="geometry" />
        </mxCell>
        <mxCell id="OfcOoXMwRskthWxn-bnW-199" value="Editar&lt;br&gt;&lt;div&gt;Serviço&lt;/div&gt;" style="rounded=1;whiteSpace=wrap;html=1;" vertex="1" parent="1">
          <mxGeometry x="1110" y="1630" width="70" height="50" as="geometry" />
        </mxCell>
        <mxCell id="OfcOoXMwRskthWxn-bnW-200" value="&lt;div&gt;Eliminar&lt;/div&gt;&lt;div&gt;Serviço&lt;/div&gt;" style="rounded=1;whiteSpace=wrap;html=1;" vertex="1" parent="1">
          <mxGeometry x="1195" y="1630" width="70" height="50" as="geometry" />
        </mxCell>
        <mxCell id="OfcOoXMwRskthWxn-bnW-201" style="edgeStyle=orthogonalEdgeStyle;rounded=0;orthogonalLoop=1;jettySize=auto;html=1;exitX=0.5;exitY=1;exitDx=0;exitDy=0;entryX=0.5;entryY=0;entryDx=0;entryDy=0;" edge="1" parent="1" source="OfcOoXMwRskthWxn-bnW-202" target="OfcOoXMwRskthWxn-bnW-212">
          <mxGeometry relative="1" as="geometry" />
        </mxCell>
        <mxCell id="OfcOoXMwRskthWxn-bnW-202" value="Atualizar&lt;br&gt;DataBase" style="rounded=1;whiteSpace=wrap;html=1;" vertex="1" parent="1">
          <mxGeometry x="1375" y="1775" width="100" height="50" as="geometry" />
        </mxCell>
        <mxCell id="OfcOoXMwRskthWxn-bnW-203" value="" style="endArrow=none;html=1;rounded=0;" edge="1" parent="1">
          <mxGeometry width="50" height="50" relative="1" as="geometry">
            <mxPoint x="1050" y="1600" as="sourcePoint" />
            <mxPoint x="1240" y="1600" as="targetPoint" />
          </mxGeometry>
        </mxCell>
        <mxCell id="OfcOoXMwRskthWxn-bnW-204" value="" style="endArrow=none;html=1;rounded=0;" edge="1" parent="1">
          <mxGeometry width="50" height="50" relative="1" as="geometry">
            <mxPoint x="1050" y="1710" as="sourcePoint" />
            <mxPoint x="1240" y="1710" as="targetPoint" />
          </mxGeometry>
        </mxCell>
        <mxCell id="OfcOoXMwRskthWxn-bnW-205" style="edgeStyle=orthogonalEdgeStyle;rounded=0;orthogonalLoop=1;jettySize=auto;html=1;exitX=0.5;exitY=1;exitDx=0;exitDy=0;" edge="1" parent="1">
          <mxGeometry relative="1" as="geometry">
            <mxPoint x="1064.9474712643678" y="1630" as="targetPoint" />
            <mxPoint x="1064.8899999999999" y="1600" as="sourcePoint" />
          </mxGeometry>
        </mxCell>
        <mxCell id="OfcOoXMwRskthWxn-bnW-206" style="edgeStyle=orthogonalEdgeStyle;rounded=0;orthogonalLoop=1;jettySize=auto;html=1;exitX=0.5;exitY=1;exitDx=0;exitDy=0;" edge="1" parent="1">
          <mxGeometry relative="1" as="geometry">
            <mxPoint x="1144.9474712643678" y="1630" as="targetPoint" />
            <mxPoint x="1144.8899999999999" y="1600" as="sourcePoint" />
          </mxGeometry>
        </mxCell>
        <mxCell id="OfcOoXMwRskthWxn-bnW-207" style="edgeStyle=orthogonalEdgeStyle;rounded=0;orthogonalLoop=1;jettySize=auto;html=1;exitX=0.5;exitY=1;exitDx=0;exitDy=0;" edge="1" parent="1">
          <mxGeometry relative="1" as="geometry">
            <mxPoint x="1229.9474712643678" y="1630" as="targetPoint" />
            <mxPoint x="1229.8899999999999" y="1600" as="sourcePoint" />
          </mxGeometry>
        </mxCell>
        <mxCell id="OfcOoXMwRskthWxn-bnW-208" style="edgeStyle=orthogonalEdgeStyle;rounded=0;orthogonalLoop=1;jettySize=auto;html=1;exitX=0.5;exitY=1;exitDx=0;exitDy=0;" edge="1" parent="1">
          <mxGeometry relative="1" as="geometry">
            <mxPoint x="1064.9474712643678" y="1710" as="targetPoint" />
            <mxPoint x="1064.8899999999999" y="1680" as="sourcePoint" />
          </mxGeometry>
        </mxCell>
        <mxCell id="OfcOoXMwRskthWxn-bnW-209" style="edgeStyle=orthogonalEdgeStyle;rounded=0;orthogonalLoop=1;jettySize=auto;html=1;exitX=0.5;exitY=1;exitDx=0;exitDy=0;" edge="1" parent="1">
          <mxGeometry relative="1" as="geometry">
            <mxPoint x="1144.9474712643678" y="1710" as="targetPoint" />
            <mxPoint x="1144.8899999999999" y="1680" as="sourcePoint" />
          </mxGeometry>
        </mxCell>
        <mxCell id="OfcOoXMwRskthWxn-bnW-210" style="edgeStyle=orthogonalEdgeStyle;rounded=0;orthogonalLoop=1;jettySize=auto;html=1;exitX=0.5;exitY=1;exitDx=0;exitDy=0;" edge="1" parent="1">
          <mxGeometry relative="1" as="geometry">
            <mxPoint x="1229.9474712643678" y="1710" as="targetPoint" />
            <mxPoint x="1229.8899999999999" y="1680" as="sourcePoint" />
          </mxGeometry>
        </mxCell>
        <mxCell id="OfcOoXMwRskthWxn-bnW-211" style="edgeStyle=orthogonalEdgeStyle;rounded=0;orthogonalLoop=1;jettySize=auto;html=1;exitX=0.5;exitY=1;exitDx=0;exitDy=0;" edge="1" parent="1" target="OfcOoXMwRskthWxn-bnW-202">
          <mxGeometry relative="1" as="geometry">
            <mxPoint x="1144.7174712643678" y="1740" as="targetPoint" />
            <mxPoint x="1144.6599999999999" y="1710" as="sourcePoint" />
            <Array as="points">
              <mxPoint x="1145" y="1740" />
              <mxPoint x="1425" y="1740" />
            </Array>
          </mxGeometry>
        </mxCell>
        <mxCell id="OfcOoXMwRskthWxn-bnW-212" value="" style="ellipse;html=1;shape=endState;fillColor=#000000;strokeColor=#ff0000;" vertex="1" parent="1">
          <mxGeometry x="1410" y="1860" width="30" height="30" as="geometry" />
        </mxCell>
      </root>
    </mxGraphModel>
  </diagram>
</mxfile>
